<svg width="16" height="16" viewBox="0 0 16 16" fill="none" xmlns="http://www.w3.org/2000/svg">
<path fill-rule="evenodd" clip-rule="evenodd" d="M7.10058 1.66743C7.37515 1.51285 7.68492 1.43164 8.00001 1.43164C8.3151 1.43164 8.62488 1.51285 8.89944 1.66743C9.17401 1.82202 9.4041 2.04475 9.56751 2.31416L9.56895 2.31653L15.2197 11.7501C15.3798 12.0273 15.4645 12.3416 15.4654 12.6617C15.4662 12.9819 15.3833 13.2966 15.2248 13.5748C15.0663 13.8529 14.8377 14.0846 14.5618 14.247C14.2859 14.4093 13.9723 14.4966 13.6522 14.5001L13.6467 14.5002L2.34785 14.5001C2.02775 14.4966 1.71415 14.4093 1.43825 14.247C1.16235 14.0846 0.933767 13.8529 0.775243 13.5748C0.616719 13.2966 0.533779 12.9819 0.534675 12.6617C0.535571 12.3416 0.620273 12.0273 0.780352 11.7501L0.784358 11.7432L6.43108 2.31653L6.86003 2.57348L6.43251 2.31416C6.59593 2.04475 6.82602 1.82202 7.10058 1.66743ZM7.28813 2.83177C7.28792 2.83211 7.28772 2.83245 7.28751 2.83278L1.64458 12.2532C1.57296 12.3785 1.53508 12.5202 1.53467 12.6645C1.53426 12.8101 1.57196 12.9531 1.64402 13.0796C1.71608 13.206 1.81998 13.3113 1.94539 13.3851C2.07009 13.4585 2.21174 13.4981 2.35639 13.5001H13.6436C13.7883 13.4981 13.9299 13.4585 14.0546 13.3851C14.18 13.3113 14.284 13.206 14.356 13.0796C14.4281 12.9531 14.4658 12.8101 14.4654 12.6645C14.465 12.5202 14.4271 12.3785 14.3554 12.2532L8.71251 2.83278C8.7123 2.83243 8.71208 2.83208 8.71187 2.83172C8.63763 2.70974 8.53329 2.60888 8.40884 2.53882C8.28404 2.46855 8.14324 2.43164 8.00001 2.43164C7.85679 2.43164 7.71598 2.46855 7.59118 2.53882C7.46672 2.60889 7.36237 2.70977 7.28813 2.83177Z" fill="#DD6902"/>
<path fill-rule="evenodd" clip-rule="evenodd" d="M8 5.5C8.27614 5.5 8.5 5.72386 8.5 6V8.66667C8.5 8.94281 8.27614 9.16667 8 9.16667C7.72386 9.16667 7.5 8.94281 7.5 8.66667V6C7.5 5.72386 7.72386 5.5 8 5.5Z" fill="#DD6902"/>
<path fill-rule="evenodd" clip-rule="evenodd" d="M7.5 11.333C7.5 11.0569 7.72386 10.833 8 10.833H8.00667C8.28281 10.833 8.50667 11.0569 8.50667 11.333C8.50667 11.6092 8.28281 11.833 8.00667 11.833H8C7.72386 11.833 7.5 11.6092 7.5 11.333Z" fill="#DD6902"/>
</svg>
