<svg width="16" height="16" viewBox="0 0 16 16" fill="none" xmlns="http://www.w3.org/2000/svg">
<path fill-rule="evenodd" clip-rule="evenodd" d="M2.8335 7.99963C2.8335 7.72348 3.05735 7.49963 3.3335 7.49963H12.6668C12.943 7.49963 13.1668 7.72348 13.1668 7.99963C13.1668 8.27577 12.943 8.49963 12.6668 8.49963H3.3335C3.05735 8.49963 2.8335 8.27577 2.8335 7.99963Z" fill="white"/>
<path fill-rule="evenodd" clip-rule="evenodd" d="M7.64661 2.97945C7.84187 2.78419 8.15845 2.78419 8.35372 2.97945L13.0204 7.64612C13.2156 7.84138 13.2156 8.15797 13.0204 8.35323L8.35372 13.0199C8.15845 13.2152 7.84187 13.2152 7.64661 13.0199C7.45135 12.8246 7.45135 12.5081 7.64661 12.3128L11.9597 7.99968L7.64661 3.68656C7.45135 3.4913 7.45135 3.17472 7.64661 2.97945Z" fill="white"/>
</svg>
