<svg width="24" height="24" viewBox="0 0 24 24" fill="none" xmlns="http://www.w3.org/2000/svg">
<path fill-rule="evenodd" clip-rule="evenodd" d="M7.22709 3.22703C8.49296 1.96116 10.2098 1.25 12.0001 1.25C13.7903 1.25 15.5072 1.96116 16.773 3.22703C18.0389 4.4929 18.7501 6.20979 18.7501 8C18.7501 11.3895 19.4754 13.5135 20.1585 14.7659C20.5011 15.394 20.8371 15.8104 21.0758 16.0623C21.1953 16.1885 21.2909 16.2739 21.3513 16.3242C21.3815 16.3494 21.403 16.3658 21.4142 16.3742L21.4229 16.3805C21.6931 16.5649 21.8129 16.9036 21.7179 17.2173C21.6221 17.5337 21.3306 17.75 21.0001 17.75H3.00006C2.66956 17.75 2.37801 17.5337 2.28224 17.2173C2.18725 16.9036 2.30704 16.5649 2.57727 16.3805L2.58589 16.3742C2.59716 16.3658 2.61861 16.3494 2.64883 16.3242C2.70925 16.2739 2.80483 16.1885 2.92434 16.0623C3.16298 15.8104 3.49904 15.394 3.84164 14.7659C4.52476 13.5135 5.25006 11.3895 5.25006 8C5.25006 6.20979 5.96122 4.4929 7.22709 3.22703ZM4.68988 16.25H19.3102C19.1568 16.0265 18.9987 15.7721 18.8416 15.4841C18.0248 13.9865 17.2501 11.6105 17.2501 8C17.2501 6.60761 16.6969 5.27225 15.7124 4.28769C14.7278 3.30312 13.3924 2.75 12.0001 2.75C10.6077 2.75 9.27232 3.30312 8.28775 4.28769C7.30318 5.27225 6.75006 6.60761 6.75006 8C6.75006 11.6105 5.97536 13.9865 5.15848 15.4841C5.00141 15.7721 4.84336 16.0265 4.68988 16.25Z" fill="#D1D1D1"/>
<path fill-rule="evenodd" clip-rule="evenodd" d="M9.89381 20.3514C10.2521 20.1435 10.7111 20.2655 10.9189 20.6238C11.0288 20.8132 11.1865 20.9705 11.3763 21.0798C11.566 21.189 11.7812 21.2466 12.0001 21.2466C12.2191 21.2466 12.4343 21.189 12.624 21.0798C12.8138 20.9705 12.9715 20.8132 13.0814 20.6238C13.2892 20.2655 13.7482 20.1435 14.1065 20.3514C14.4648 20.5592 14.5867 21.0182 14.3789 21.3765C14.1372 21.7932 13.7902 22.1391 13.3727 22.3796C12.9552 22.62 12.4819 22.7466 12.0001 22.7466C11.5184 22.7466 11.0451 22.62 10.6276 22.3796C10.2101 22.1391 9.86313 21.7932 9.62139 21.3765C9.41355 21.0182 9.53552 20.5592 9.89381 20.3514Z" fill="#D1D1D1"/>
</svg>
