<svg width="17" height="16" viewBox="0 0 17 16" fill="none" xmlns="http://www.w3.org/2000/svg">
<path fill-rule="evenodd" clip-rule="evenodd" d="M8.30833 0.205067C8.49517 0.127677 8.71023 0.170454 8.85323 0.313453L12.5199 3.98012C12.7152 4.17538 12.7152 4.49196 12.5199 4.68723L9.20678 8.00034L12.5199 11.3135C12.7152 11.5087 12.7152 11.8253 12.5199 12.0206L8.85323 15.6872C8.71023 15.8302 8.49517 15.873 8.30833 15.7956C8.12149 15.7182 7.99967 15.5359 7.99967 15.3337V9.20745L5.18656 12.0206C4.9913 12.2158 4.67472 12.2158 4.47945 12.0206C4.28419 11.8253 4.28419 11.5087 4.47945 11.3135L7.79257 8.00034L4.47945 4.68723C4.28419 4.49196 4.28419 4.17538 4.47945 3.98012C4.67472 3.78486 4.9913 3.78486 5.18656 3.98012L7.99967 6.79323V0.667007C7.99967 0.464776 8.12149 0.282458 8.30833 0.205067ZM8.99967 9.20745L11.4592 11.667L8.99967 14.1266V9.20745ZM8.99967 6.79323V1.87411L11.4592 4.33367L8.99967 6.79323Z" fill="white"/>
</svg>
