<svg width="24" height="24" viewBox="0 0 24 24" fill="none" xmlns="http://www.w3.org/2000/svg">
<path fill-rule="evenodd" clip-rule="evenodd" d="M11.9998 1.4248C6.13397 1.4248 1.4248 6.17537 1.4248 11.9998C1.4248 17.8654 6.13417 22.5748 11.9998 22.5748C17.8242 22.5748 22.5748 17.8656 22.5748 11.9998C22.5748 11.0074 22.4094 10.0162 22.162 9.10898L22.1255 8.97502L21.0916 10.1438L20.9433 10.292L20.9491 10.3296C21.0305 10.8586 21.0713 11.429 21.0713 11.9998C21.0713 17.0443 17.0033 21.1123 11.9588 21.1123C6.95551 21.1123 2.8873 17.0445 2.8873 11.9998C2.8873 6.99609 6.95551 2.8873 11.9998 2.8873C12.5676 2.8873 13.1367 2.96845 13.67 3.0505L13.7076 3.05627L13.8561 2.9078L15.0246 1.87414L14.8906 1.8376C13.9834 1.59017 12.9923 1.4248 11.9998 1.4248ZM16.7074 1.97727C17.2836 1.44631 18.168 1.71543 18.3881 2.46264L19.1147 4.88489L21.5368 5.6115C22.2842 5.83146 22.5527 6.71669 22.0217 7.29286L20.2182 9.34232L20.2172 9.34345C19.7496 9.85356 19.0675 10.1093 18.3442 9.98187L15.5122 9.53685L12.504 12.545C12.2286 12.8204 11.73 12.8204 11.4546 12.545C11.1792 12.2696 11.1792 11.771 11.4546 11.4956L14.4628 8.48743L14.0176 5.65473C13.8902 4.93141 14.1461 4.25 14.6562 3.78241L14.6573 3.78139L16.7074 1.97727ZM15.6133 4.88231L17.1708 3.48062L17.6984 5.25182L15.7412 7.20895L15.4371 5.38395L15.4366 5.38158C15.4006 5.20147 15.475 4.98607 15.6133 4.88231ZM11.9998 5.36231C8.30769 5.36231 5.36231 8.34931 5.36231 11.9998C5.36231 15.6916 8.30799 18.6373 11.9998 18.6373C15.6503 18.6373 18.6373 15.6919 18.6373 11.9998C18.6373 11.7475 18.5954 11.4963 18.5548 11.2523L18.5548 11.2523L18.5438 11.1865H18.4803C18.4507 11.1865 18.4126 11.1796 18.3603 11.17L18.345 11.1672C18.2903 11.1573 18.2251 11.1462 18.1583 11.1455L17.0223 10.9638L17.0546 11.0771C17.1345 11.3564 17.1748 11.6775 17.1748 11.9998C17.1748 14.8701 14.8299 17.1748 11.9998 17.1748C9.12912 17.1748 6.8248 14.8705 6.8248 11.9998C6.8248 9.16975 9.1295 6.8248 11.9998 6.8248C12.3221 6.8248 12.6432 6.86514 12.9226 6.94497L13.0358 6.97733L12.8541 5.84131C12.8534 5.77448 12.8423 5.70934 12.8324 5.6546L12.8296 5.63936C12.82 5.58701 12.8131 5.54895 12.8131 5.51934V5.4558L12.7474 5.44485C12.5033 5.40418 12.2521 5.36231 11.9998 5.36231ZM16.7907 8.25838L18.7478 6.30124L20.519 6.82883L19.1216 8.38107L19.1175 8.38645C19.0138 8.52479 18.7981 8.599 18.618 8.56298L18.6157 8.56254L16.7907 8.25838Z" fill="#D1D1D1"/>
</svg>
