<svg width="16" height="16" viewBox="0 0 16 16" fill="none" xmlns="http://www.w3.org/2000/svg">
<g clip-path="url(#clip0_1703_18950)">
<path fill-rule="evenodd" clip-rule="evenodd" d="M10.5105 2.36345C9.29582 1.82223 7.93873 1.68815 6.64163 1.98121C5.34454 2.27427 4.17692 2.97878 3.31292 3.98965C2.44893 5.00052 1.93485 6.2636 1.84735 7.59051C1.75986 8.91743 2.10363 10.2371 2.82741 11.3526C3.55119 12.4682 4.61619 13.3199 5.86357 13.7808C7.11096 14.2416 8.4739 14.2869 9.74912 13.9099C11.0243 13.5328 12.1435 12.7537 12.9397 11.6886C13.7359 10.6236 14.1665 9.32977 14.1673 8.00007C14.1673 7.99998 14.1673 8.00017 14.1673 8.00007V7.38674C14.1673 7.1106 14.3912 6.88674 14.6673 6.88674C14.9435 6.88674 15.1673 7.1106 15.1673 7.38674V8.00007C15.1664 9.54551 14.666 11.0495 13.7407 12.2873C12.8153 13.5251 11.5147 14.4306 10.0327 14.8688C8.55064 15.307 6.96669 15.2544 5.51702 14.7188C4.06736 14.1832 2.82965 13.1934 1.98851 11.8969C1.14736 10.6005 0.747835 9.0668 0.849519 7.52472C0.951204 5.98263 1.54865 4.51473 2.55275 3.33993C3.55685 2.16513 4.91381 1.34638 6.42125 1.0058C7.92869 0.665211 9.50584 0.821033 10.9175 1.45003C11.1697 1.56242 11.2831 1.858 11.1707 2.11024C11.0583 2.36248 10.7627 2.47584 10.5105 2.36345Z" fill="white"/>
<path fill-rule="evenodd" clip-rule="evenodd" d="M15.02 2.31277C15.2154 2.50794 15.2156 2.82452 15.0204 3.01988L8.35373 9.69321C8.25998 9.78706 8.13278 9.8398 8.00012 9.83984C7.86747 9.83987 7.74025 9.78719 7.64645 9.69339L5.64645 7.69339C5.45118 7.49813 5.45118 7.18155 5.64645 6.98628C5.84171 6.79102 6.15829 6.79102 6.35355 6.98628L7.99982 8.63255L14.3129 2.31313C14.5081 2.11777 14.8247 2.11761 15.02 2.31277Z" fill="white"/>
</g>
<defs>
<clipPath id="clip0_1703_18950">
<rect width="16" height="16" fill="white"/>
</clipPath>
</defs>
</svg>
