<svg width="25" height="25" viewBox="0 0 25 25" fill="none" xmlns="http://www.w3.org/2000/svg">
<path fill-rule="evenodd" clip-rule="evenodd" d="M6.9668 5.25C6.63528 5.25 6.31733 5.3817 6.08291 5.61612C5.84849 5.85054 5.7168 6.16848 5.7168 6.5V20.5C5.7168 20.8315 5.84849 21.1495 6.08291 21.3839C6.31733 21.6183 6.63528 21.75 6.9668 21.75H18.9668C19.2983 21.75 19.6163 21.6183 19.8507 21.3839C20.0851 21.1495 20.2168 20.8315 20.2168 20.5V6.5C20.2168 6.16848 20.0851 5.85054 19.8507 5.61612C19.6163 5.3817 19.2983 5.25 18.9668 5.25H16.9668C16.5526 5.25 16.2168 4.91421 16.2168 4.5C16.2168 4.08579 16.5526 3.75 16.9668 3.75H18.9668C19.6961 3.75 20.3956 4.03973 20.9113 4.55546C21.4271 5.07118 21.7168 5.77065 21.7168 6.5V20.5C21.7168 21.2293 21.4271 21.9288 20.9113 22.4445C20.3956 22.9603 19.6961 23.25 18.9668 23.25H6.9668C6.23745 23.25 5.53798 22.9603 5.02225 22.4445C4.50653 21.9288 4.2168 21.2293 4.2168 20.5V6.5C4.2168 5.77065 4.50653 5.07118 5.02225 4.55546C5.53798 4.03973 6.23745 3.75 6.9668 3.75H8.9668C9.38101 3.75 9.7168 4.08579 9.7168 4.5C9.7168 4.91421 9.38101 5.25 8.9668 5.25H6.9668Z" fill="#5D5D5D"/>
<path fill-rule="evenodd" clip-rule="evenodd" d="M9.9668 3.25C9.82873 3.25 9.7168 3.36193 9.7168 3.5V5.5C9.7168 5.63807 9.82873 5.75 9.9668 5.75H15.9668C16.1049 5.75 16.2168 5.63807 16.2168 5.5V3.5C16.2168 3.36193 16.1049 3.25 15.9668 3.25H9.9668ZM8.2168 3.5C8.2168 2.5335 9.0003 1.75 9.9668 1.75H15.9668C16.9333 1.75 17.7168 2.5335 17.7168 3.5V5.5C17.7168 6.4665 16.9333 7.25 15.9668 7.25H9.9668C9.0003 7.25 8.2168 6.4665 8.2168 5.5V3.5Z" fill="#5D5D5D"/>
</svg>
