<svg width="16" height="16" viewBox="0 0 16 16" fill="none" xmlns="http://www.w3.org/2000/svg">
<path d="M13.7841 5.32891L13.7841 5.32894L13.7851 5.32812C13.8445 5.28061 13.9228 5.2797 13.9878 5.31066C14.053 5.34173 14.1 5.40246 14.1 5.47266V9.4375V9.875V12.5C14.1 12.9779 13.7015 13.35 13.25 13.35H2.75C2.27162 13.35 1.9 12.9784 1.9 12.5V10.75V9.4375V3.3125C1.9 3.10654 2.08121 2.9 2.3125 2.9H4.0625C4.16374 2.9 4.26708 2.95087 4.3456 3.0294C4.42413 3.10792 4.475 3.21126 4.475 3.3125V7.41406C4.475 7.58727 4.56196 7.73195 4.70589 7.81831C4.77967 7.86258 4.86721 7.87682 4.94992 7.86963C5.03225 7.86247 5.11179 7.83391 5.17065 7.78998L8.97083 5.27475L8.97089 5.27484L8.97265 5.27343C9.03203 5.22592 9.11028 5.22502 9.17529 5.25597C9.24053 5.28704 9.2875 5.34777 9.2875 5.41797V7.66016C9.2875 7.83011 9.37218 8.00565 9.52099 8.06579C9.69098 8.15047 9.8654 8.15186 10.0112 8.03556L13.7841 5.32891ZM5.4 6.54681V3.3125C5.4 2.58776 4.78724 1.975 4.0625 1.975H2.3125C1.56007 1.975 0.975 2.5881 0.975 3.3125V9.4375V10.75V12.5C0.975 13.4982 1.75182 14.275 2.75 14.275H13.25C14.2206 14.275 15.025 13.4984 15.025 12.5V9.875V9.4375V5.47266C15.025 4.57659 13.9898 4.04649 13.2356 4.57721L13.2353 4.5774L10.2125 6.76357V5.41797C10.2125 4.52245 9.20541 3.99186 8.45098 4.49482L8.45089 4.49488L5.4 6.54681Z" fill="#D1D1D1" stroke="#D1D1D1" stroke-width="0.05"/>
</svg>
