<svg width="172" height="180" viewBox="0 0 172 180" fill="none" xmlns="http://www.w3.org/2000/svg">
<g clip-path="url(#clip0_1703_18779)">
<path d="M85.9014 7.7666C82.5117 7.7666 79.7227 10.5127 79.7227 13.9454C79.7227 17.378 82.4688 20.0813 85.9014 20.0813C89.3341 20.0813 92.0373 17.3351 92.0373 13.9454C92.0373 10.5556 89.2912 7.7666 85.9014 7.7666ZM85.9014 19.0086C83.1124 19.0086 80.7954 16.7344 80.7954 13.9454C80.7954 11.1564 83.0695 8.83931 85.9014 8.83931C88.7334 8.83931 90.9646 11.1134 90.9646 13.9454C90.9646 16.7773 88.6905 19.0086 85.9014 19.0086Z" fill="#FFB320"/>
<path d="M36.2147 32.0521C38.1455 34.7553 42.2218 35.3561 44.7534 33.4252C46.1265 32.4383 46.9846 30.9794 47.2421 29.3489C47.4995 27.7613 47.1134 26.1308 46.1265 24.8435C44.968 23.213 43.1229 22.269 41.1491 22.269C39.819 22.269 38.6175 22.6981 37.5877 23.4705C36.2147 24.4574 35.3565 25.9162 35.0991 27.5468C34.8416 29.1344 35.2278 30.7649 36.2147 32.0521ZM38.1885 24.3715C40.5055 22.6981 43.7236 23.2988 45.2683 25.4872C46.0836 26.517 46.3839 27.9329 46.1265 29.306C45.9548 30.5074 45.2254 31.7089 44.1527 32.567C43.2516 33.2106 42.2218 33.5539 41.1491 33.5539C39.5186 33.5539 37.9739 32.7816 37.0299 31.4514C36.2147 30.4216 35.9143 29.0056 36.1718 27.6326C36.3434 26.4311 37.0728 25.2297 38.1456 24.3715H38.1885Z" fill="#FFB320"/>
<path d="M15.4473 60.6295C14.8037 60.4149 14.203 60.3291 13.5594 60.3291C10.8991 60.3291 8.53911 62.0454 7.72385 64.577C7.20895 66.1217 7.33768 67.7951 8.06712 69.254C8.79656 70.7129 10.0838 71.7856 11.6285 72.3005C15.0182 73.3732 18.3651 71.4852 19.3949 68.3529C19.9098 66.8082 19.7811 65.1348 19.0087 63.6759C18.2793 62.2171 16.992 61.1444 15.4473 60.6295ZM18.408 68.0526C17.7215 70.1551 15.7477 71.5711 13.5594 71.5711C12.9587 71.5711 12.4008 71.4852 11.9289 71.3136C10.6845 70.8845 9.69763 70.0264 9.05401 68.8249C8.41038 67.6235 8.28166 66.2075 8.75365 64.9203C9.44018 62.8178 11.414 61.4018 13.6023 61.4018C14.203 61.4018 14.7608 61.4876 15.2328 61.6593C16.4771 62.0454 17.464 62.9465 18.1076 64.1479C18.7513 65.3494 18.88 66.7653 18.408 68.0526Z" fill="#FFB320"/>
<path d="M19.3949 111.604C18.5796 109.073 16.2197 107.356 13.5594 107.356C12.9157 107.356 12.315 107.442 11.6285 107.657C10.0838 108.172 8.79656 109.244 8.06712 110.703C7.33768 112.162 7.20895 113.836 7.72385 115.38C8.75365 118.513 11.9718 120.401 15.4902 119.328C18.7084 118.255 20.4676 114.78 19.4378 111.561L19.3949 111.604ZM13.5594 118.598C11.3281 118.598 9.39727 117.182 8.71074 115.08C8.28166 113.793 8.41038 112.463 9.0111 111.218C9.61181 110.017 10.6416 109.116 11.9718 108.687C12.4008 108.515 12.9587 108.429 13.5594 108.429C15.7906 108.429 17.7215 109.845 18.408 111.948C18.8371 113.235 18.7084 114.565 18.1076 115.809C17.464 117.054 16.4342 117.912 15.147 118.341C14.5892 118.555 13.9885 118.598 13.5594 118.598Z" fill="#FFB320"/>
<path d="M47.2422 150.565C46.9847 148.934 46.1265 147.561 44.7964 146.617C43.7237 145.845 42.4364 145.416 41.1921 145.416C39.2183 145.416 37.3733 146.36 36.2576 147.947C35.2708 149.277 34.8846 150.908 35.142 152.538C35.3995 154.169 36.2577 155.542 37.5878 156.486C40.3768 158.503 44.2815 157.773 46.1694 155.156C47.1563 153.826 47.5425 152.152 47.2851 150.565H47.2422ZM45.3113 154.512C44.3673 155.842 42.8655 156.615 41.1921 156.615C40.1194 156.615 39.0896 156.271 38.2314 155.671C37.0729 154.77 36.3864 153.611 36.2147 152.281C36.0431 150.994 36.3435 149.621 37.1158 148.548C38.6605 146.36 41.9644 145.845 44.1528 147.389C45.3113 148.29 45.9978 149.449 46.1694 150.779C46.3411 152.066 46.0407 153.439 45.3113 154.512Z" fill="#FFB320"/>
<path d="M85.9014 159.919C82.5117 159.919 79.7227 162.665 79.7227 166.055C79.7227 169.445 82.4688 172.234 85.9014 172.234C89.3341 172.234 92.0373 169.487 92.0373 166.055C92.0373 162.622 89.2912 159.919 85.9014 159.919ZM85.9014 171.161C83.1124 171.161 80.7954 168.887 80.7954 166.055C80.7954 163.223 83.0695 160.992 85.9014 160.992C88.7334 160.992 90.9646 163.266 90.9646 166.055C90.9646 168.844 88.6905 171.161 85.9014 171.161Z" fill="#FFB320"/>
<path d="M136.705 152.495C136.962 150.908 136.576 149.277 135.589 147.99C134.431 146.36 132.586 145.416 130.612 145.416C129.282 145.416 128.08 145.802 127.051 146.574C125.678 147.561 124.819 149.02 124.562 150.65C124.305 152.238 124.691 153.868 125.678 155.156C127.608 157.859 131.642 158.46 134.216 156.529C135.589 155.542 136.448 154.083 136.705 152.452V152.495ZM130.612 156.615C128.982 156.615 127.437 155.842 126.493 154.512C125.678 153.482 125.377 152.066 125.635 150.693C125.806 149.492 126.536 148.247 127.608 147.432C129.925 145.802 133.144 146.36 134.688 148.548C135.504 149.621 135.804 150.994 135.546 152.367C135.375 153.568 134.645 154.812 133.573 155.628C132.672 156.271 131.642 156.615 130.569 156.615H130.612Z" fill="#FFB320"/>
<path d="M160.133 107.657C159.489 107.442 158.846 107.356 158.245 107.356C155.585 107.356 153.225 109.073 152.409 111.604C151.38 114.822 153.139 118.298 156.357 119.371C159.79 120.443 163.094 118.555 164.123 115.423C164.638 113.878 164.509 112.205 163.78 110.746C163.051 109.287 161.763 108.215 160.219 107.7L160.133 107.657ZM163.051 115.08C162.364 117.182 160.39 118.598 158.245 118.598C157.816 118.598 157.215 118.555 156.614 118.341C155.37 117.912 154.383 117.054 153.74 115.852C153.096 114.651 152.967 113.235 153.439 111.948C154.126 109.845 156.099 108.429 158.288 108.429C158.889 108.429 159.446 108.515 159.918 108.687C161.12 109.073 162.15 109.931 162.793 111.132C163.437 112.377 163.566 113.75 163.094 115.08H163.051Z" fill="#FFB320"/>
<path d="M152.409 68.3958C153.439 71.5281 156.7 73.4161 160.176 72.3434C163.394 71.3136 165.153 67.7951 164.123 64.577C163.265 62.0454 160.948 60.3291 158.288 60.3291C157.644 60.3291 157.043 60.4149 156.357 60.6295C153.139 61.6593 151.38 65.1777 152.409 68.3958ZM158.245 61.4018C160.433 61.4018 162.407 62.8178 163.094 64.9203C163.523 66.2075 163.437 67.5377 162.793 68.782C162.192 70.0264 161.163 70.8416 159.833 71.3136C159.403 71.4852 158.846 71.5711 158.245 71.5711C156.014 71.5711 154.083 70.1551 153.396 68.0526C152.967 66.7653 153.053 65.4352 153.697 64.1908C154.34 62.9465 155.37 62.0883 156.657 61.6593C157.086 61.4876 157.644 61.4018 158.245 61.4018Z" fill="#FFB320"/>
<path d="M136.662 27.461C136.405 25.8305 135.546 24.4574 134.216 23.5134C133.144 22.7411 131.856 22.312 130.612 22.312C128.638 22.312 126.793 23.256 125.635 24.8436C124.648 26.1738 124.262 27.8043 124.519 29.4348C124.776 31.0653 125.635 32.4384 126.965 33.3823C129.754 35.399 133.658 34.6696 135.546 32.0522C136.533 30.722 136.919 29.0915 136.662 27.461ZM134.731 31.4086C133.787 32.7387 132.285 33.5111 130.612 33.5111C129.539 33.5111 128.509 33.1678 127.651 32.5671C126.493 31.666 125.806 30.5075 125.635 29.2202C125.463 27.8901 125.763 26.5599 126.536 25.4872C128.08 23.2989 131.384 22.784 133.573 24.3287C134.731 25.2298 135.418 26.3883 135.589 27.7184C135.761 29.0057 135.461 30.3788 134.688 31.4515L134.731 31.4086Z" fill="#FFB320"/>
<path d="M85.9027 -6.05248e-05C85.5165 -6.05248e-05 85.1303 -6.05248e-05 84.7441 0.0428477L85.2161 3.51841C85.4736 3.51841 85.6881 3.51841 85.9027 3.51841C86.1601 3.51841 86.3747 3.51841 86.5892 3.51841L87.0612 -6.05248e-05C86.675 -6.05248e-05 86.2888 -0.0429688 85.9027 -0.0429688V-6.05248e-05Z" fill="#FFB320"/>
<path d="M73.2441 8.06649L76.4623 9.35374C76.6339 8.96756 76.8484 8.6243 77.063 8.32394L74.2739 6.22144C73.8878 6.86506 73.5445 7.46577 73.2441 8.06649Z" fill="#FFB320"/>
<path d="M73.373 20.0385C73.6734 20.6392 74.0167 21.2829 74.4458 21.8836L77.2348 19.6953C77.0202 19.352 76.8057 19.0087 76.5912 18.6226L73.373 19.9956V20.0385Z" fill="#FFB320"/>
<path d="M98.4751 7.89461C98.1747 7.25099 97.8315 6.65028 97.4453 6.04956L94.6562 8.19497C94.8708 8.53824 95.0853 8.8815 95.257 9.22477L98.518 7.89461H98.4751Z" fill="#FFB320"/>
<path d="M95.214 18.5796C95.0424 18.9229 94.8278 19.309 94.6133 19.6523L97.4023 21.7977C97.8314 21.2399 98.1747 20.5963 98.475 19.9527L95.214 18.6225V18.5796Z" fill="#FFB320"/>
<path d="M86.5465 24.2856C86.1174 24.2856 85.7313 24.2856 85.3451 24.2856L84.916 27.8041C85.6025 27.847 86.3749 27.8041 87.0185 27.8041L86.5465 24.2856Z" fill="#FFB320"/>
<path d="M36.4291 37.7593L34.627 40.7629C35.2706 41.1061 35.9571 41.3636 36.6007 41.621L37.5447 38.2742C37.1585 38.1455 36.8153 37.9738 36.4291 37.8022V37.7593Z" fill="#FFB320"/>
<path d="M45.9555 19.1801L47.8006 16.1765C47.1999 15.8333 46.5562 15.5758 45.8697 15.3184L44.8828 18.7081C45.2261 18.8368 45.6123 19.0085 45.9555 19.1801Z" fill="#FFB320"/>
<path d="M27.2461 28.9629C27.2461 29.6494 27.3319 30.336 27.5035 31.0654L30.9362 30.2072C30.8504 29.8211 30.8075 29.4349 30.8075 29.0058H27.289L27.2461 28.9629Z" fill="#FFB320"/>
<path d="M51.4043 26.7747C51.4472 27.1609 51.4901 27.5471 51.533 27.9762L55.0515 28.062C55.0515 27.3325 54.9657 26.646 54.837 25.9595L51.4472 26.7747H51.4043Z" fill="#FFB320"/>
<path d="M47.8424 36.4719C47.4991 36.7293 47.1987 36.9868 46.8555 37.2013L48.5718 40.2478C48.5718 40.2478 48.958 39.9903 49.1296 39.8616L49.3871 39.6471C49.6874 39.4325 49.9878 39.1751 50.2452 38.9605L47.8424 36.429V36.4719Z" fill="#FFB320"/>
<path d="M34.5414 20.4247C34.5414 20.4247 34.8847 20.1243 35.0563 19.9956C35.2279 19.8669 35.3996 19.7381 35.6141 19.6094L33.9407 16.52C33.5974 16.7346 33.2971 16.9491 32.9538 17.1636C32.6534 17.3782 32.3531 17.6356 32.0527 17.8502L34.4985 20.3818L34.5414 20.4247Z" fill="#FFB320"/>
<path d="M11.9713 56.2099L11.7139 52.7344C11.0274 52.8202 10.2979 52.9489 9.6543 53.1635L10.8128 56.4674C11.1561 56.3816 11.5852 56.2958 11.9713 56.2099Z" fill="#FFB320"/>
<path d="M5.44913 73.1587L2.61719 75.1754C3.04627 75.7332 3.51826 76.2481 4.03316 76.7201L6.26439 74.0598C5.96403 73.8023 5.70658 73.502 5.44913 73.1587Z" fill="#FFB320"/>
<path d="M23.5991 69.1255C23.5132 69.5117 23.3845 69.8978 23.2129 70.284L26.431 71.7858C26.5597 71.4854 26.6885 71.1851 26.7743 70.8418C26.903 70.4985 26.9888 70.1124 27.0746 69.7691L23.5991 69.1255Z" fill="#FFB320"/>
<path d="M20.8535 59.127C21.111 59.3845 21.4113 59.6849 21.6688 60.0281L24.5865 58.0114C24.1145 57.4107 23.6425 56.8958 23.1706 56.4238L20.8964 59.0841L20.8535 59.127Z" fill="#FFB320"/>
<path d="M15.1894 76.806L15.4897 80.3245C16.1763 80.2387 16.8628 80.0671 17.5493 79.8525L16.3479 76.5486C15.9617 76.6344 15.5756 76.7631 15.1465 76.806H15.1894Z" fill="#FFB320"/>
<path d="M0.300358 62.1738L0.214541 62.3884C0.128725 62.6887 0.0429082 62.9891 0 63.2895L3.43266 63.9331C3.43266 63.9331 3.56138 63.5469 3.60429 63.3324L3.77592 62.9462C3.77592 62.9462 3.86174 62.7746 3.86174 62.6887L0.686532 61.144C0.557807 61.4873 0.429082 61.8306 0.300358 62.1738Z" fill="#FFB320"/>
<path d="M0.343266 117.826C0.429082 118.169 0.557807 118.513 0.72944 118.899L3.90465 117.354C3.90465 117.354 3.77592 116.968 3.69011 116.753C3.60429 116.539 3.56138 116.324 3.47557 116.11L0 116.753C0.0858165 117.097 0.171633 117.44 0.300358 117.826H0.343266Z" fill="#FFB320"/>
<path d="M26.6456 108.686C26.6456 108.686 26.5169 108.343 26.4311 108.171L23.2559 109.673C23.3846 110.059 23.5133 110.446 23.642 110.832L27.0747 110.188C26.9889 109.845 26.9031 109.502 26.7743 109.201L26.6456 108.729V108.686Z" fill="#FFB320"/>
<path d="M3.99019 103.323C3.47529 103.795 3.0033 104.31 2.57422 104.911L5.44907 106.885C5.70652 106.584 5.96397 106.284 6.26433 105.984L3.99019 103.323Z" fill="#FFB320"/>
<path d="M23.2135 123.533C23.7284 123.018 24.2004 122.503 24.6295 121.902L21.7117 119.928C21.4543 120.271 21.1968 120.572 20.8965 120.829L23.2135 123.49V123.533Z" fill="#FFB320"/>
<path d="M9.78308 126.88C10.4696 127.051 11.1561 127.223 11.8427 127.266L12.0572 123.876H11.8856V123.747C11.5423 123.705 11.1991 123.619 10.8558 123.533L9.69727 126.837L9.78308 126.88Z" fill="#FFB320"/>
<path d="M17.4635 100.148C16.7341 99.933 16.0905 99.7614 15.4039 99.6755L15.1465 103.151C15.5327 103.194 15.9617 103.28 16.305 103.409L17.4635 100.148Z" fill="#FFB320"/>
<path d="M30.8934 149.878L27.5036 149.02C27.3749 149.621 27.332 150.307 27.2891 151.123L30.8075 151.037C30.8075 150.651 30.8504 150.264 30.9363 149.878H30.8934Z" fill="#FFB320"/>
<path d="M49.344 140.31L49.0436 140.053C49.0436 140.053 48.6145 139.795 48.4 139.667L46.7266 142.756C47.0698 142.97 47.4131 143.228 47.7134 143.442L50.0734 140.911C49.816 140.696 49.5585 140.482 49.3011 140.31H49.344Z" fill="#FFB320"/>
<path d="M44.9688 161.292L46.0415 164.639C46.728 164.381 47.3716 164.081 47.9723 163.738L46.1273 160.777C45.784 160.948 45.3978 161.12 44.9688 161.292Z" fill="#FFB320"/>
<path d="M36.5578 138.508C35.9142 138.722 35.2706 139.023 34.627 139.366L36.4291 142.327C36.7724 142.155 37.1585 141.983 37.5447 141.812L36.5578 138.508Z" fill="#FFB320"/>
<path d="M51.4902 153.139L54.9228 153.911C55.0516 153.225 55.0945 152.495 55.0945 151.809L51.576 151.937C51.576 152.323 51.5331 152.753 51.4473 153.139H51.4902Z" fill="#FFB320"/>
<path d="M35.0993 160.005C35.0993 160.005 34.7131 159.747 34.5415 159.575L32.0957 162.107C32.3961 162.364 32.6964 162.579 32.9968 162.794C33.34 163.051 33.6833 163.266 33.9837 163.437L35.6142 160.348C35.6142 160.348 35.2709 160.133 35.0993 160.005Z" fill="#FFB320"/>
<path d="M73.33 172.105C73.6304 172.749 73.9736 173.349 74.3598 173.95L77.1488 171.805C76.9343 171.461 76.7198 171.118 76.5481 170.775L73.2871 172.105H73.33Z" fill="#FFB320"/>
<path d="M85.2591 155.714C85.6453 155.714 86.0744 155.714 86.4605 155.714L86.8896 152.195C86.2031 152.152 85.4736 152.195 84.7871 152.195L85.2591 155.714Z" fill="#FFB320"/>
<path d="M76.5911 161.42C76.7627 161.077 76.9773 160.691 77.1918 160.347L74.4028 158.202C73.9737 158.76 73.6304 159.403 73.3301 160.047L76.5911 161.42Z" fill="#FFB320"/>
<path d="M95.3 170.689C95.1284 171.075 94.9138 171.418 94.7422 171.719L97.5312 173.821C97.9174 173.178 98.2607 172.577 98.561 171.976L95.6862 170.818L95.3 170.689Z" fill="#FFB320"/>
<path d="M98.4321 159.962C98.1317 159.362 97.7884 158.718 97.3593 158.117L94.5703 160.306C94.7849 160.649 94.9994 160.992 95.2139 161.378L98.4321 159.962Z" fill="#FFB320"/>
<path d="M86.5892 176.481C86.3317 176.481 86.1172 176.481 85.9027 176.481C85.6452 176.481 85.4307 176.481 85.2161 176.481L84.7441 179.999C85.5165 180.042 86.3317 180.042 87.0612 179.999L86.5892 176.524V176.481Z" fill="#FFB320"/>
<path d="M144.514 151.037C144.514 150.35 144.429 149.664 144.257 148.934L140.824 149.792C140.91 150.178 140.953 150.565 140.953 150.994H144.514V151.037Z" fill="#FFB320"/>
<path d="M122.717 140.096L122.417 140.353C122.116 140.568 121.816 140.825 121.559 141.039L123.961 143.571C124.305 143.314 124.648 143.056 124.948 142.842L123.232 139.795C123.232 139.795 122.889 140.01 122.717 140.138V140.096Z" fill="#FFB320"/>
<path d="M120.401 153.225C120.358 152.839 120.315 152.452 120.272 152.023L116.754 151.938C116.754 152.667 116.84 153.353 116.968 154.04L120.358 153.225H120.401Z" fill="#FFB320"/>
<path d="M125.851 160.82L124.006 163.823C124.607 164.167 125.25 164.424 125.937 164.682L126.924 161.292C126.58 161.163 126.194 160.991 125.851 160.82Z" fill="#FFB320"/>
<path d="M135.375 142.241L137.178 139.237C136.534 138.894 135.89 138.636 135.204 138.379L134.26 141.726C134.646 141.854 134.989 142.026 135.375 142.198V142.241Z" fill="#FFB320"/>
<path d="M136.749 160.004C136.749 160.004 136.363 160.262 136.191 160.391L137.865 163.48C138.208 163.265 138.551 163.051 138.852 162.836C139.152 162.622 139.452 162.364 139.753 162.15L137.307 159.618C137.307 159.618 136.964 159.919 136.792 160.047L136.749 160.004Z" fill="#FFB320"/>
<path d="M156.616 103.194L156.315 99.6755C155.629 99.7614 154.942 99.933 154.213 100.148L155.414 103.451C155.801 103.366 156.187 103.28 156.616 103.194Z" fill="#FFB320"/>
<path d="M150.909 120.872C150.651 120.615 150.351 120.314 150.094 119.971L147.176 121.988C147.648 122.589 148.12 123.103 148.592 123.533L150.866 120.872H150.909Z" fill="#FFB320"/>
<path d="M159.834 123.79L160.091 127.266C160.821 127.18 161.507 127.051 162.151 126.837L160.993 123.533C160.563 123.662 160.177 123.747 159.834 123.79Z" fill="#FFB320"/>
<path d="M145.029 109.158C144.9 109.502 144.814 109.888 144.729 110.231L148.204 110.875C148.333 110.488 148.419 110.102 148.59 109.716L145.372 108.214C145.243 108.515 145.115 108.815 145.029 109.115V109.158Z" fill="#FFB320"/>
<path d="M165.496 105.984C165.796 106.241 166.054 106.541 166.311 106.885L169.143 104.868C168.714 104.31 168.242 103.795 167.727 103.323L165.496 105.984Z" fill="#FFB320"/>
<path d="M168.244 116.582L168.029 117.311L171.162 118.813C171.29 118.47 171.419 118.126 171.548 117.783L171.634 117.569C171.719 117.268 171.805 116.968 171.848 116.668L168.415 116.024C168.415 116.024 168.33 116.324 168.287 116.496L168.244 116.582Z" fill="#FFB320"/>
<path d="M148.592 56.5098C148.077 56.9818 147.605 57.5396 147.176 58.1403L150.094 60.1141C150.351 59.7708 150.608 59.4704 150.909 59.213L148.592 56.5527V56.5098Z" fill="#FFB320"/>
<path d="M144.728 69.8111C144.814 70.1544 144.9 70.4976 145.029 70.798L145.158 71.3129C145.158 71.3129 145.286 71.6562 145.329 71.8278L148.504 70.326C148.376 69.9398 148.247 69.5537 148.118 69.1675L144.686 69.8111H144.728Z" fill="#FFB320"/>
<path d="M156.399 80.2816L156.657 76.806C156.271 76.7631 155.842 76.6773 155.498 76.5486L154.34 79.8096C155.069 80.0242 155.713 80.1958 156.399 80.2816Z" fill="#FFB320"/>
<path d="M167.813 76.6771C168.285 76.2051 168.8 75.6902 169.229 75.0895L166.354 73.1157C166.097 73.4161 165.839 73.7164 165.539 74.0168L167.813 76.6771Z" fill="#FFB320"/>
<path d="M160.864 56.4244L162.022 53.1205C161.336 52.9489 160.649 52.7772 159.963 52.6914L159.705 56.167C160.091 56.2099 160.477 56.2957 160.864 56.4244Z" fill="#FFB320"/>
<path d="M167.943 62.6458C167.943 62.6458 168.072 63.0319 168.158 63.2465C168.244 63.461 168.33 63.6756 168.372 63.8901L171.805 63.2465C171.719 62.9032 171.633 62.56 171.505 62.1738C171.419 61.8305 171.29 61.4872 171.119 61.1011L167.943 62.6458Z" fill="#FFB320"/>
<path d="M136.706 19.9956C136.706 19.9956 137.092 20.2531 137.264 20.4247L139.71 17.8931C139.41 17.6357 139.109 17.4212 138.809 17.2066C138.466 16.9921 138.165 16.7346 137.822 16.563L136.191 19.6524C136.191 19.6524 136.535 19.8669 136.706 20.0386V19.9956Z" fill="#FFB320"/>
<path d="M124.004 36.5579L121.645 39.0894C121.902 39.304 122.159 39.5185 122.417 39.6902L122.717 39.9476C122.717 39.9476 123.146 40.2051 123.361 40.3338L124.991 37.2444C124.648 37.0299 124.305 36.7724 124.004 36.5579Z" fill="#FFB320"/>
<path d="M120.315 26.8607L116.883 26.0884C116.754 26.7749 116.711 27.5044 116.711 28.1909L120.229 28.0622C120.229 27.676 120.272 27.2469 120.358 26.8607H120.315Z" fill="#FFB320"/>
<path d="M126.838 18.7082L125.765 15.3613C125.078 15.6188 124.435 15.9191 123.834 16.2624L125.679 19.2231C126.022 19.0514 126.408 18.8798 126.838 18.7082Z" fill="#FFB320"/>
<path d="M135.375 37.7163C135.032 37.8879 134.646 38.0596 134.26 38.2312L135.247 41.5351C135.933 41.3206 136.577 41.0202 137.178 40.677L135.375 37.7163Z" fill="#FFB320"/>
<path d="M140.953 30.1212L144.3 30.9365C144.429 30.3358 144.472 29.6492 144.514 28.834L140.996 28.9198C140.996 29.2202 140.953 29.5634 140.91 29.9067H140.996V30.1212H140.953Z" fill="#FFB320"/>
<path d="M119.629 51.2322C130.613 60.5862 136.792 74.4884 136.792 90.0212C136.792 118.126 114.008 140.91 85.9028 140.91C57.7979 140.91 35.0137 118.126 35.0137 90.0212C35.0137 74.5743 41.879 60.7578 52.7348 51.4467L119.672 51.2322H119.629Z" stroke="#D1D1D1" stroke-width="2" stroke-miterlimit="10"/>
<path d="M60.5429 99.3329C65.9064 99.3329 70.2831 94.9562 70.2831 89.5927C70.2831 84.2292 65.9064 79.8525 60.5429 79.8525C55.1794 79.8525 50.8027 84.2292 50.8027 89.5927C50.8027 94.9562 55.1794 99.3329 60.5429 99.3329Z" stroke="#D1D1D1" stroke-width="2" stroke-miterlimit="10"/>
<path d="M86.332 99.3329C91.6955 99.3329 96.0721 94.9562 96.0721 89.5927C96.0721 84.2292 91.6955 79.8525 86.332 79.8525C80.9684 79.8525 76.5918 84.2292 76.5918 89.5927C76.5918 94.9562 80.9684 99.3329 86.332 99.3329Z" stroke="#D1D1D1" stroke-width="2" stroke-miterlimit="10"/>
<path d="M112.119 99.3329C117.483 99.3329 121.859 94.9562 121.859 89.5927C121.859 84.2292 117.483 79.8525 112.119 79.8525C106.756 79.8525 102.379 84.2292 102.379 89.5927C102.379 94.9562 106.756 99.3329 112.119 99.3329Z" stroke="#D1D1D1" stroke-width="2" stroke-miterlimit="10"/>
<path d="M74.2753 122.03C79.6388 122.03 84.0155 117.654 84.0155 112.29C84.0155 106.927 79.6388 102.55 74.2753 102.55C68.9118 102.55 64.5352 106.927 64.5352 112.29C64.5352 117.654 68.9118 122.03 74.2753 122.03Z" stroke="#D1D1D1" stroke-width="2" stroke-miterlimit="10"/>
<path d="M100.062 122.03C105.426 122.03 109.803 117.654 109.803 112.29C109.803 106.927 105.426 102.55 100.062 102.55C94.6989 102.55 90.3223 106.927 90.3223 112.29C90.3223 117.654 94.6989 122.03 100.062 122.03Z" stroke="#D1D1D1" stroke-width="2" stroke-miterlimit="10"/>
<path d="M73.5449 78.9937C77.3638 78.9937 80.4532 75.9043 80.4532 72.0855C80.4532 68.2666 77.3638 65.1772 73.5449 65.1772C69.7261 65.1772 66.6367 68.2666 66.6367 72.0855C66.6367 75.9043 69.7261 78.9937 73.5449 78.9937Z" stroke="#D1D1D1" stroke-width="2" stroke-miterlimit="10"/>
<path d="M100.063 78.9507C103.881 78.9507 106.971 75.8613 106.971 72.0425C106.971 68.2237 103.881 65.1343 100.063 65.1343C96.2437 65.1343 93.1543 68.2237 93.1543 72.0425C93.1543 75.8613 96.2437 78.9507 100.063 78.9507Z" stroke="#D1D1D1" stroke-width="2" stroke-miterlimit="10"/>
</g>
<defs>
<clipPath id="clip0_1703_18779">
<rect width="171.805" height="180" fill="white"/>
</clipPath>
</defs>
</svg>
