<svg width="172" height="180" viewBox="0 0 172 180" fill="none" xmlns="http://www.w3.org/2000/svg">
<g clip-path="url(#clip0_1703_17709)">
<path d="M119.629 51.2322C130.613 60.5862 136.792 74.4884 136.792 90.0212C136.792 118.126 114.008 140.91 85.9028 140.91C57.7979 140.91 35.0137 118.126 35.0137 90.0212C35.0137 74.5743 41.879 60.7578 52.7348 51.4467L119.672 51.2322H119.629Z" stroke="#D1D1D1" stroke-width="2" stroke-miterlimit="10"/>
<path d="M60.5429 99.3329C65.9064 99.3329 70.2831 94.9562 70.2831 89.5927C70.2831 84.2292 65.9064 79.8525 60.5429 79.8525C55.1794 79.8525 50.8027 84.2292 50.8027 89.5927C50.8027 94.9562 55.1794 99.3329 60.5429 99.3329Z" stroke="#D1D1D1" stroke-width="2" stroke-miterlimit="10"/>
<path d="M86.332 99.3329C91.6955 99.3329 96.0721 94.9562 96.0721 89.5927C96.0721 84.2292 91.6955 79.8525 86.332 79.8525C80.9684 79.8525 76.5918 84.2292 76.5918 89.5927C76.5918 94.9562 80.9684 99.3329 86.332 99.3329Z" stroke="#D1D1D1" stroke-width="2" stroke-miterlimit="10"/>
<path d="M112.119 99.3329C117.483 99.3329 121.859 94.9562 121.859 89.5927C121.859 84.2292 117.483 79.8525 112.119 79.8525C106.756 79.8525 102.379 84.2292 102.379 89.5927C102.379 94.9562 106.756 99.3329 112.119 99.3329Z" stroke="#D1D1D1" stroke-width="2" stroke-miterlimit="10"/>
<path d="M74.2753 122.03C79.6388 122.03 84.0155 117.654 84.0155 112.29C84.0155 106.927 79.6388 102.55 74.2753 102.55C68.9118 102.55 64.5352 106.927 64.5352 112.29C64.5352 117.654 68.9118 122.03 74.2753 122.03Z" stroke="#D1D1D1" stroke-width="2" stroke-miterlimit="10"/>
<path d="M100.062 122.03C105.426 122.03 109.803 117.654 109.803 112.29C109.803 106.927 105.426 102.55 100.062 102.55C94.6989 102.55 90.3223 106.927 90.3223 112.29C90.3223 117.654 94.6989 122.03 100.062 122.03Z" stroke="#D1D1D1" stroke-width="2" stroke-miterlimit="10"/>
<path d="M73.5449 78.9937C77.3638 78.9937 80.4532 75.9043 80.4532 72.0855C80.4532 68.2666 77.3638 65.1772 73.5449 65.1772C69.7261 65.1772 66.6367 68.2666 66.6367 72.0855C66.6367 75.9043 69.7261 78.9937 73.5449 78.9937Z" stroke="#D1D1D1" stroke-width="2" stroke-miterlimit="10"/>
<path d="M100.063 78.9507C103.881 78.9507 106.971 75.8613 106.971 72.0425C106.971 68.2237 103.881 65.1343 100.063 65.1343C96.2437 65.1343 93.1543 68.2237 93.1543 72.0425C93.1543 75.8613 96.2437 78.9507 100.063 78.9507Z" stroke="#D1D1D1" stroke-width="2" stroke-miterlimit="10"/>
</g>
<defs>
<clipPath id="clip0_1703_17709">
<rect width="171.805" height="180" fill="white"/>
</clipPath>
</defs>
</svg>
