<svg width="25" height="25" viewBox="0 0 25 25" fill="none" xmlns="http://www.w3.org/2000/svg">
<path fill-rule="evenodd" clip-rule="evenodd" d="M11.6396 1.90799C11.9105 1.69734 12.2897 1.69734 12.5606 1.90799L21.5606 8.90799C21.7432 9.05008 21.8501 9.26856 21.8501 9.5V20.5C21.8501 21.2293 21.5604 21.9288 21.0446 22.4445C20.5289 22.9603 19.8294 23.25 19.1001 23.25H5.1001C4.37075 23.25 3.67128 22.9603 3.15555 22.4445C2.63983 21.9288 2.3501 21.2293 2.3501 20.5V9.5C2.3501 9.26856 2.45695 9.05008 2.63964 8.90799L11.6396 1.90799ZM3.8501 9.86681V20.5C3.8501 20.8315 3.98179 21.1495 4.21621 21.3839C4.45063 21.6183 4.76858 21.75 5.1001 21.75H19.1001C19.4316 21.75 19.7496 21.6183 19.984 21.3839C20.2184 21.1495 20.3501 20.8315 20.3501 20.5V9.86681L12.1001 3.45015L3.8501 9.86681Z" fill="#5D5D5D"/>
<path fill-rule="evenodd" clip-rule="evenodd" d="M8.3501 12.5C8.3501 12.0858 8.68588 11.75 9.1001 11.75H15.1001C15.5143 11.75 15.8501 12.0858 15.8501 12.5V22.5C15.8501 22.9142 15.5143 23.25 15.1001 23.25C14.6859 23.25 14.3501 22.9142 14.3501 22.5V13.25H9.8501V22.5C9.8501 22.9142 9.51431 23.25 9.1001 23.25C8.68588 23.25 8.3501 22.9142 8.3501 22.5V12.5Z" fill="#5D5D5D"/>
</svg>
