<svg width="24" height="24" viewBox="0 0 24 24" fill="none" xmlns="http://www.w3.org/2000/svg">
<path fill-rule="evenodd" clip-rule="evenodd" d="M12 2.75C6.89137 2.75 2.75 6.89137 2.75 12C2.75 17.1086 6.89137 21.25 12 21.25C17.1086 21.25 21.25 17.1086 21.25 12C21.25 6.89137 17.1086 2.75 12 2.75ZM1.25 12C1.25 6.06294 6.06294 1.25 12 1.25C17.9371 1.25 22.75 6.06294 22.75 12C22.75 17.9371 17.9371 22.75 12 22.75C6.06294 22.75 1.25 17.9371 1.25 12Z" fill="#D1D1D1"/>
<path fill-rule="evenodd" clip-rule="evenodd" d="M12 8.75C10.2051 8.75 8.75 10.2051 8.75 12C8.75 13.7949 10.2051 15.25 12 15.25C13.7949 15.25 15.25 13.7949 15.25 12C15.25 10.2051 13.7949 8.75 12 8.75ZM7.25 12C7.25 9.37665 9.37665 7.25 12 7.25C14.6234 7.25 16.75 9.37665 16.75 12C16.75 14.6234 14.6234 16.75 12 16.75C9.37665 16.75 7.25 14.6234 7.25 12Z" fill="#D1D1D1"/>
<path fill-rule="evenodd" clip-rule="evenodd" d="M4.39985 4.39936C4.69274 4.10646 5.16761 4.10646 5.46051 4.39936L9.70051 8.63936C9.9934 8.93225 9.9934 9.40712 9.70051 9.70002C9.40761 9.99291 8.93274 9.99291 8.63985 9.70002L4.39985 5.46002C4.10695 5.16712 4.10695 4.69225 4.39985 4.39936Z" fill="#D1D1D1"/>
<path fill-rule="evenodd" clip-rule="evenodd" d="M14.2997 14.2997C14.5926 14.0069 15.0675 14.0069 15.3604 14.2997L19.6004 18.5397C19.8933 18.8326 19.8933 19.3075 19.6004 19.6004C19.3075 19.8933 18.8326 19.8933 18.5397 19.6004L14.2997 15.3604C14.0069 15.0675 14.0069 14.5926 14.2997 14.2997Z" fill="#D1D1D1"/>
<path fill-rule="evenodd" clip-rule="evenodd" d="M19.6004 4.39936C19.8933 4.69225 19.8933 5.16712 19.6004 5.46002L15.3604 9.70002C15.0675 9.99291 14.5926 9.99291 14.2997 9.70002C14.0069 9.40712 14.0069 8.93225 14.2997 8.63936L18.5397 4.39936C18.8326 4.10646 19.3075 4.10646 19.6004 4.39936Z" fill="#D1D1D1"/>
<path fill-rule="evenodd" clip-rule="evenodd" d="M18.8904 5.10932C19.1833 5.40221 19.1833 5.87709 18.8904 6.16998L15.3604 9.69998C15.0675 9.99287 14.5926 9.99287 14.2997 9.69998C14.0069 9.40709 14.0069 8.93221 14.2997 8.63932L17.8297 5.10932C18.1226 4.81643 18.5975 4.81643 18.8904 5.10932Z" fill="#D1D1D1"/>
<path fill-rule="evenodd" clip-rule="evenodd" d="M9.70051 14.2997C9.9934 14.5926 9.9934 15.0675 9.70051 15.3604L5.46051 19.6004C5.16761 19.8933 4.69274 19.8933 4.39985 19.6004C4.10695 19.3075 4.10695 18.8326 4.39985 18.5397L8.63985 14.2997C8.93274 14.0069 9.40761 14.0069 9.70051 14.2997Z" fill="#D1D1D1"/>
</svg>
