<svg width="17" height="16" viewBox="0 0 17 16" fill="none" xmlns="http://www.w3.org/2000/svg">
<path fill-rule="evenodd" clip-rule="evenodd" d="M3.16683 3.16699C2.70964 3.16699 2.3335 3.54313 2.3335 4.00033V12.0003C2.3335 12.4575 2.70964 12.8337 3.16683 12.8337H13.8335C14.2907 12.8337 14.6668 12.4575 14.6668 12.0003V4.00033C14.6668 3.54313 14.2907 3.16699 13.8335 3.16699H3.16683ZM1.3335 4.00033C1.3335 2.99085 2.15735 2.16699 3.16683 2.16699H13.8335C14.843 2.16699 15.6668 2.99085 15.6668 4.00033V12.0003C15.6668 13.0098 14.843 13.8337 13.8335 13.8337H3.16683C2.15735 13.8337 1.3335 13.0098 1.3335 12.0003V4.00033Z" fill="white"/>
<path fill-rule="evenodd" clip-rule="evenodd" d="M1.42392 3.71331C1.58228 3.48709 1.89405 3.43207 2.12027 3.59043L8.50021 8.05638L14.8801 3.59043C15.1064 3.43207 15.4181 3.48709 15.5765 3.71331C15.7348 3.93954 15.6798 4.2513 15.4536 4.40966L8.78694 9.07633C8.61478 9.19684 8.38563 9.19684 8.21347 9.07633L1.54681 4.40966C1.32058 4.2513 1.26557 3.93954 1.42392 3.71331Z" fill="white"/>
</svg>
