<svg width="33" height="32" viewBox="0 0 33 32" fill="none" xmlns="http://www.w3.org/2000/svg">
<path fill-rule="evenodd" clip-rule="evenodd" d="M5.83366 5C4.91318 5 4.16699 5.74619 4.16699 6.66667V20C4.16699 20.9205 4.91318 21.6667 5.83366 21.6667H27.167C28.0875 21.6667 28.8337 20.9205 28.8337 20V6.66667C28.8337 5.74619 28.0875 5 27.167 5H5.83366ZM2.16699 6.66667C2.16699 4.64162 3.80861 3 5.83366 3H27.167C29.192 3 30.8337 4.64162 30.8337 6.66667V20C30.8337 22.025 29.192 23.6667 27.167 23.6667H5.83366C3.80861 23.6667 2.16699 22.025 2.16699 20V6.66667Z" fill="#5D5D5D"/>
<path fill-rule="evenodd" clip-rule="evenodd" d="M10.167 28C10.167 27.4477 10.6147 27 11.167 27H21.8337C22.3859 27 22.8337 27.4477 22.8337 28C22.8337 28.5523 22.3859 29 21.8337 29H11.167C10.6147 29 10.167 28.5523 10.167 28Z" fill="#5D5D5D"/>
<path fill-rule="evenodd" clip-rule="evenodd" d="M16.5 21.667C17.0523 21.667 17.5 22.1147 17.5 22.667V28.0003C17.5 28.5526 17.0523 29.0003 16.5 29.0003C15.9477 29.0003 15.5 28.5526 15.5 28.0003V22.667C15.5 22.1147 15.9477 21.667 16.5 21.667Z" fill="#5D5D5D"/>
</svg>
