<svg width="25" height="25" viewBox="0 0 25 25" fill="none" xmlns="http://www.w3.org/2000/svg">
<path fill-rule="evenodd" clip-rule="evenodd" d="M11.1499 12.5C11.1499 11.5335 11.9334 10.75 12.8999 10.75C13.8664 10.75 14.6499 11.5335 14.6499 12.5C14.6499 13.4665 13.8664 14.25 12.8999 14.25C11.9334 14.25 11.1499 13.4665 11.1499 12.5Z" fill="#5D5D5D"/>
<path fill-rule="evenodd" clip-rule="evenodd" d="M18.1499 12.5C18.1499 11.5335 18.9334 10.75 19.8999 10.75C20.8664 10.75 21.6499 11.5335 21.6499 12.5C21.6499 13.4665 20.8664 14.25 19.8999 14.25C18.9334 14.25 18.1499 13.4665 18.1499 12.5Z" fill="#5D5D5D"/>
<path fill-rule="evenodd" clip-rule="evenodd" d="M4.1499 12.5C4.1499 11.5335 4.9334 10.75 5.8999 10.75C6.8664 10.75 7.6499 11.5335 7.6499 12.5C7.6499 13.4665 6.8664 14.25 5.8999 14.25C4.9334 14.25 4.1499 13.4665 4.1499 12.5Z" fill="#5D5D5D"/>
</svg>
