<svg width="24" height="24" viewBox="0 0 24 24" fill="none" xmlns="http://www.w3.org/2000/svg">
<rect width="24" height="24" fill="white" fill-opacity="0.01"/>
<path fill-rule="evenodd" clip-rule="evenodd" d="M12.8001 4.39961C12.8001 3.95779 12.4419 3.59961 12.0001 3.59961C11.5583 3.59961 11.2001 3.95779 11.2001 4.39961V11.1996H4.4001C3.95827 11.1996 3.6001 11.5578 3.6001 11.9996C3.6001 12.4414 3.95827 12.7996 4.4001 12.7996H11.2001V19.5996C11.2001 20.0414 11.5583 20.3996 12.0001 20.3996C12.4419 20.3996 12.8001 20.0414 12.8001 19.5996V12.7996H19.6001C20.0419 12.7996 20.4001 12.4414 20.4001 11.9996C20.4001 11.5578 20.0419 11.1996 19.6001 11.1996H12.8001V4.39961Z" fill="white"/>
</svg>
