<svg width="24" height="24" viewBox="0 0 24 24" fill="none" xmlns="http://www.w3.org/2000/svg">
<g clip-path="url(#clip0_1032_5847)">
<path d="M12.5073 22.0023V22H12.0073C6.49446 22 2 17.5193 2 11.9927C2 6.46651 6.47935 2 12.0073 2C17.5339 2 22.0147 6.49446 22.0147 12.0073C22.0147 17.353 17.8017 21.741 12.5073 22.0023ZM12.0073 2.46546C6.74863 2.46546 2.46546 6.74863 2.46546 12.0073C2.46546 17.266 6.74863 21.5492 12.0073 21.5492C17.266 21.5492 21.5492 17.266 21.5492 12.0073C21.5492 6.74863 17.266 2.46546 12.0073 2.46546Z" fill="#888888" stroke="#888888"/>
<path d="M11.705 13.0508L11.705 13.0508L11.7031 13.0453C11.6649 12.935 11.7186 12.8097 11.8373 12.7623C11.8393 12.7617 11.8411 12.7611 11.8427 12.7607C11.8554 12.7567 11.8687 12.7522 11.881 12.748C11.9065 12.7391 11.9391 12.7272 11.9772 12.7125C12.0538 12.6831 12.1584 12.6405 12.2815 12.5855C12.5265 12.4759 12.8533 12.3133 13.1825 12.1018C13.5088 11.8922 13.8569 11.6223 14.1279 11.2924C14.3999 10.9614 14.6176 10.5404 14.6176 10.0435C14.6176 9.41949 14.4043 8.78963 13.9853 8.29778C13.5721 7.8127 12.9988 7.49016 12.3873 7.38224L12.3873 7.38223L12.3849 7.38182C11.7652 7.27559 11.1134 7.37865 10.561 7.72549C10.0064 8.05009 9.59528 8.5536 9.3816 9.15902L9.38159 9.15902L9.3806 9.16188C9.3395 9.28062 9.20015 9.34925 9.07875 9.30723L8.9152 9.77972L9.07875 9.30723C8.96058 9.26632 8.89203 9.1281 8.93281 9.00711C9.18825 8.29392 9.67003 7.70123 10.3118 7.32374C10.9577 6.94376 11.7172 6.80487 12.4499 6.93121C13.1858 7.05808 13.8566 7.43856 14.3364 8.00671C14.8176 8.57653 15.083 9.29774 15.083 10.0435C15.083 11.0217 14.4243 11.7851 13.6296 12.3461C12.8471 12.8985 12.043 13.1731 11.9957 13.1888L11.9818 13.1935L11.9682 13.1989C11.9682 13.1989 11.9663 13.1997 11.9622 13.2008C11.9582 13.202 11.9531 13.2032 11.9472 13.2042C11.9345 13.2065 11.9242 13.2071 11.9194 13.2071C11.8221 13.2071 11.738 13.1499 11.705 13.0508Z" fill="#888888" stroke="#888888"/>
<path d="M12.0077 17.1785C11.84 17.1785 11.7168 17.0553 11.7168 16.8876C11.7168 16.7199 11.84 16.5967 12.0077 16.5967C12.1754 16.5967 12.2986 16.7199 12.2986 16.8876C12.2986 17.0553 12.1754 17.1785 12.0077 17.1785Z" fill="#888888" stroke="#888888" stroke-width="1.25"/>
</g>
<defs>
<clipPath id="clip0_1032_5847">
<rect width="21" height="21" fill="white" transform="translate(1.5 1.5)"/>
</clipPath>
</defs>
</svg>
