<svg width="32" height="32" viewBox="0 0 32 32" fill="none" xmlns="http://www.w3.org/2000/svg">
<path fill-rule="evenodd" clip-rule="evenodd" d="M15.9997 14.333C15.0792 14.333 14.333 15.0792 14.333 15.9997C14.333 16.9201 15.0792 17.6663 15.9997 17.6663C16.9201 17.6663 17.6663 16.9201 17.6663 15.9997C17.6663 15.0792 16.9201 14.333 15.9997 14.333ZM12.333 15.9997C12.333 13.9746 13.9746 12.333 15.9997 12.333C18.0247 12.333 19.6663 13.9746 19.6663 15.9997C19.6663 18.0247 18.0247 19.6663 15.9997 19.6663C13.9746 19.6663 12.333 18.0247 12.333 15.9997Z" fill="#5D5D5D"/>
<path fill-rule="evenodd" clip-rule="evenodd" d="M7.28074 5.86603C7.67132 6.25649 7.67142 6.88966 7.28095 7.28024C4.96881 9.59308 3.66992 12.7296 3.66992 15.9999C3.66992 19.2703 4.96881 22.4067 7.28095 24.7196C7.67142 25.1102 7.67132 25.7433 7.28074 26.1338C6.89016 26.5243 6.25699 26.5242 5.86653 26.1336C3.17944 23.4457 1.66992 19.8006 1.66992 15.9999C1.66992 12.1992 3.17944 8.55414 5.86653 5.86624C6.25699 5.47566 6.89016 5.47556 7.28074 5.86603ZM24.7201 5.86603C25.1107 5.47556 25.7438 5.47566 26.1343 5.86624C28.8214 8.55414 30.3309 12.1992 30.3309 15.9999C30.3309 19.8006 28.8214 23.4457 26.1343 26.1336C25.7438 26.5242 25.1107 26.5243 24.7201 26.1338C24.3295 25.7433 24.3294 25.1102 24.7199 24.7196C27.032 22.4067 28.3309 19.2703 28.3309 15.9999C28.3309 12.7296 27.032 9.59308 24.7199 7.28024C24.3294 6.88966 24.3295 6.25649 24.7201 5.86603ZM11.0546 9.62653C11.4449 10.0173 11.4445 10.6504 11.0538 11.0407C10.403 11.6909 9.88664 12.4629 9.53437 13.3127C9.1821 14.1624 9.00078 15.0733 9.00078 15.9932C9.00078 16.9132 9.1821 17.824 9.53437 18.6738C9.88664 19.5236 10.403 20.2956 11.0538 20.9457C11.4445 21.3361 11.4449 21.9692 11.0546 22.36C10.6643 22.7507 10.0311 22.751 9.64036 22.3607C8.80357 21.5249 8.13974 20.5323 7.68682 19.4397C7.23391 18.3471 7.00078 17.176 7.00078 15.9932C7.00078 14.8105 7.23391 13.6394 7.68682 12.5468C8.13974 11.4542 8.80357 10.4616 9.64036 9.62574C10.0311 9.23544 10.6643 9.23579 11.0546 9.62653ZM20.9462 9.63986C21.3365 9.24912 21.9697 9.24877 22.3605 9.63908C23.1972 10.4749 23.8611 11.4675 24.314 12.5601C24.7669 13.6527 25 14.8238 25 16.0066C25 17.1893 24.7669 18.3605 24.314 19.453C23.8611 20.5456 23.1972 21.5382 22.3605 22.3741C21.9697 22.7644 21.3365 22.764 20.9462 22.3733C20.5559 21.9825 20.5563 21.3494 20.947 20.9591C21.5979 20.309 22.1142 19.5369 22.4664 18.6872C22.8187 17.8374 23 16.9265 23 16.0066C23 15.0867 22.8187 14.1758 22.4664 13.326C22.1142 12.4762 21.5979 11.7042 20.947 11.0541C20.5563 10.6638 20.5559 10.0306 20.9462 9.63986Z" fill="#5D5D5D"/>
</svg>
