<svg width="16" height="16" viewBox="0 0 16 16" fill="none" xmlns="http://www.w3.org/2000/svg">
<path fill-rule="evenodd" clip-rule="evenodd" d="M15.334 2.1665C15.6101 2.1665 15.834 2.39036 15.834 2.6665V6.6665C15.834 6.94264 15.6101 7.1665 15.334 7.1665H11.334C11.0578 7.1665 10.834 6.94264 10.834 6.6665C10.834 6.39036 11.0578 6.1665 11.334 6.1665H14.834V2.6665C14.834 2.39036 15.0578 2.1665 15.334 2.1665Z" fill="white"/>
<path fill-rule="evenodd" clip-rule="evenodd" d="M0.166016 9.3335C0.166016 9.05735 0.389873 8.8335 0.666016 8.8335H4.66602C4.94216 8.8335 5.16602 9.05735 5.16602 9.3335C5.16602 9.60964 4.94216 9.8335 4.66602 9.8335H1.16602V13.3335C1.16602 13.6096 0.942158 13.8335 0.666016 13.8335C0.389873 13.8335 0.166016 13.6096 0.166016 13.3335V9.3335Z" fill="white"/>
<path fill-rule="evenodd" clip-rule="evenodd" d="M9.52388 2.71805C8.63139 2.45989 7.68805 2.43203 6.78188 2.63707C5.87571 2.8421 5.03625 3.27334 4.34183 3.89055C3.6474 4.50777 3.12064 5.29083 2.81071 6.16669C2.71859 6.42701 2.43288 6.56337 2.17255 6.47125C1.91223 6.37913 1.77587 6.09341 1.86799 5.83309C2.23428 4.79799 2.85681 3.87255 3.6775 3.14311C4.49818 2.41368 5.49027 1.90403 6.5612 1.66172C7.63212 1.41941 8.74698 1.45234 9.80174 1.75743C10.8539 2.06178 11.8121 2.62707 12.5873 3.40077L15.6751 6.30218C15.8763 6.49127 15.8862 6.8077 15.6971 7.00894C15.508 7.21018 15.1915 7.22003 14.9903 7.03093L11.897 4.12426L11.8857 4.11335C11.2289 3.45623 10.4164 2.9762 9.52388 2.71805ZM0.301641 8.99083C0.490737 8.78959 0.807166 8.77975 1.00841 8.96884L4.10174 11.8755L4.11299 11.8864C4.76978 12.5435 5.58233 13.0236 6.47482 13.2817C7.36731 13.5399 8.31065 13.5677 9.21682 13.3627C10.123 13.1577 10.9624 12.7264 11.6569 12.1092C12.3513 11.492 12.8781 10.7089 13.188 9.83309C13.2801 9.57277 13.5658 9.43641 13.8261 9.52853C14.0865 9.62065 14.2228 9.90636 14.1307 10.1667C13.7644 11.2018 13.1419 12.1272 12.3212 12.8567C11.5005 13.5861 10.5084 14.0957 9.4375 14.3381C8.36657 14.5804 7.25172 14.5474 6.19696 14.2423C5.14476 13.938 4.18658 13.3727 3.41137 12.599L0.323629 9.6976C0.122389 9.5085 0.112545 9.19207 0.301641 8.99083Z" fill="white"/>
</svg>
