<svg width="295" height="294" viewBox="0 0 295 294" fill="none" xmlns="http://www.w3.org/2000/svg">
<path fill-rule="evenodd" clip-rule="evenodd" d="M286.225 47.6745C286.225 49.8735 288.024 51.6561 290.243 51.6561C292.462 51.6561 294.262 49.8735 294.262 47.6745V4.55783C294.262 2.35882 292.462 0.576177 290.243 0.57618L246.73 0.576172C244.511 0.576172 242.712 2.35882 242.712 4.55782C242.712 6.75682 244.511 8.53947 246.73 8.53947L286.225 8.53947L286.225 47.6745ZM48.2698 8.53959C50.489 8.53959 52.288 6.75694 52.288 4.55794C52.288 2.35894 50.489 0.576291 48.2698 0.576292L4.75655 0.576293C2.53732 0.576291 0.738281 2.35894 0.738286 4.55794L0.738281 47.6746C0.738283 49.8736 2.53732 51.6562 4.75655 51.6562C6.97578 51.6562 8.77482 49.8736 8.77482 47.6746L8.77482 8.53959L48.2698 8.53959ZM8.77491 246.325C8.77491 244.126 6.97587 242.343 4.75664 242.343C2.53741 242.343 0.738375 244.126 0.738375 246.325L0.738376 289.441C0.738375 291.64 2.53741 293.423 4.75664 293.423H48.2698C50.4891 293.423 52.2881 291.64 52.2881 289.441C52.2881 287.242 50.4891 285.46 48.2698 285.46H8.77491L8.77491 246.325ZM242.712 289.441C242.712 287.242 244.511 285.459 246.73 285.459L286.225 285.459V246.324C286.225 244.125 288.024 242.343 290.244 242.343C292.463 242.343 294.262 244.125 294.262 246.324V289.441C294.262 291.64 292.463 293.423 290.244 293.423H246.73C244.511 293.423 242.712 291.64 242.712 289.441Z" fill="#D1D1D1"/>
</svg>
