<svg width="24" height="24" viewBox="0 0 24 24" fill="none" xmlns="http://www.w3.org/2000/svg">
<path fill-rule="evenodd" clip-rule="evenodd" d="M11 3.75C6.99594 3.75 3.75 6.99594 3.75 11C3.75 15.0041 6.99594 18.25 11 18.25C15.0041 18.25 18.25 15.0041 18.25 11C18.25 6.99594 15.0041 3.75 11 3.75ZM2.25 11C2.25 6.16751 6.16751 2.25 11 2.25C15.8325 2.25 19.75 6.16751 19.75 11C19.75 15.8325 15.8325 19.75 11 19.75C6.16751 19.75 2.25 15.8325 2.25 11Z" fill="#D1D1D1"/>
<path fill-rule="evenodd" clip-rule="evenodd" d="M16.1196 16.1201C16.4125 15.8272 16.8873 15.8272 17.1802 16.1201L21.5302 20.4701C21.8231 20.763 21.8231 21.2378 21.5302 21.5307C21.2373 21.8236 20.7625 21.8236 20.4696 21.5307L16.1196 17.1807C15.8267 16.8878 15.8267 16.413 16.1196 16.1201Z" fill="#D1D1D1"/>
</svg>
