<svg width="33" height="32" viewBox="0 0 33 32" fill="none" xmlns="http://www.w3.org/2000/svg">
<g clip-path="url(#clip0_505_15246)">
<path fill-rule="evenodd" clip-rule="evenodd" d="M5.58301 17.667C6.13529 17.667 6.58301 18.1147 6.58301 18.667V28.0003C6.58301 28.5526 6.13529 29.0003 5.58301 29.0003C5.03072 29.0003 4.58301 28.5526 4.58301 28.0003V18.667C4.58301 18.1147 5.03072 17.667 5.58301 17.667Z" fill="#74AF28"/>
<path fill-rule="evenodd" clip-rule="evenodd" d="M5.58301 3C6.13529 3 6.58301 3.44772 6.58301 4V13.3333C6.58301 13.8856 6.13529 14.3333 5.58301 14.3333C5.03072 14.3333 4.58301 13.8856 4.58301 13.3333V4C4.58301 3.44772 5.03072 3 5.58301 3Z" fill="#74AF28"/>
<path fill-rule="evenodd" clip-rule="evenodd" d="M16.25 15C16.8023 15 17.25 15.4477 17.25 16V28C17.25 28.5523 16.8023 29 16.25 29C15.6977 29 15.25 28.5523 15.25 28V16C15.25 15.4477 15.6977 15 16.25 15Z" fill="#74AF28"/>
<path fill-rule="evenodd" clip-rule="evenodd" d="M16.25 3C16.8023 3 17.25 3.44772 17.25 4V10.6667C17.25 11.219 16.8023 11.6667 16.25 11.6667C15.6977 11.6667 15.25 11.219 15.25 10.6667V4C15.25 3.44772 15.6977 3 16.25 3Z" fill="#74AF28"/>
<path fill-rule="evenodd" clip-rule="evenodd" d="M26.917 20.333C27.4693 20.333 27.917 20.7807 27.917 21.333V27.9997C27.917 28.552 27.4693 28.9997 26.917 28.9997C26.3647 28.9997 25.917 28.552 25.917 27.9997V21.333C25.917 20.7807 26.3647 20.333 26.917 20.333Z" fill="#74AF28"/>
<path fill-rule="evenodd" clip-rule="evenodd" d="M26.917 3C27.4693 3 27.917 3.44772 27.917 4V16C27.917 16.5523 27.4693 17 26.917 17C26.3647 17 25.917 16.5523 25.917 16V4C25.917 3.44772 26.3647 3 26.917 3Z" fill="#74AF28"/>
<path fill-rule="evenodd" clip-rule="evenodd" d="M0.583008 18.667C0.583008 18.1147 1.03072 17.667 1.58301 17.667H9.58301C10.1353 17.667 10.583 18.1147 10.583 18.667C10.583 19.2193 10.1353 19.667 9.58301 19.667H1.58301C1.03072 19.667 0.583008 19.2193 0.583008 18.667Z" fill="#74AF28"/>
<path fill-rule="evenodd" clip-rule="evenodd" d="M11.25 10.667C11.25 10.1147 11.6977 9.66699 12.25 9.66699H20.25C20.8023 9.66699 21.25 10.1147 21.25 10.667C21.25 11.2193 20.8023 11.667 20.25 11.667H12.25C11.6977 11.667 11.25 11.2193 11.25 10.667Z" fill="#74AF28"/>
<path fill-rule="evenodd" clip-rule="evenodd" d="M21.917 21.333C21.917 20.7807 22.3647 20.333 22.917 20.333H30.917C31.4693 20.333 31.917 20.7807 31.917 21.333C31.917 21.8853 31.4693 22.333 30.917 22.333H22.917C22.3647 22.333 21.917 21.8853 21.917 21.333Z" fill="#74AF28"/>
</g>
<defs>
<clipPath id="clip0_505_15246">
<rect width="32" height="32" fill="white" transform="translate(0.25)"/>
</clipPath>
</defs>
</svg>
