<svg width="147" height="147" viewBox="0 0 147 147" fill="none" xmlns="http://www.w3.org/2000/svg">
<path d="M85.9275 48.4873C85.9275 51.3353 80.4555 54.4393 73.4795 54.4393C66.5035 54.4393 60.6475 51.3353 60.6475 48.4873" stroke="#74AF28" stroke-width="1.6" stroke-linecap="round" stroke-linejoin="round"/>
<path d="M1 73.288C1 33.352 33.352 1 73.288 1C113.224 1 145.576 33.352 145.576 73.288C145.576 113.224 113.224 145.576 73.288 145.576C33.352 145.576 1 113.224 1 73.288Z" stroke="#74AF28" stroke-width="1.6" stroke-linecap="round" stroke-linejoin="round"/>
<mask id="mask0_807_19145" style="mask-type:luminance" maskUnits="userSpaceOnUse" x="35" y="44" width="77" height="68">
<path d="M35.8811 45.9072C39.0405 46.8454 43.8864 47.6321 49.8122 48.2039C56.4737 48.8468 64.5637 49.2236 73.2891 49.2236C82.0144 49.2236 90.1044 48.8468 96.7659 48.2039C102.692 47.6321 107.538 46.8454 110.697 45.9072V110.696H35.8811V45.9072Z" fill="white" stroke="white" stroke-width="1.6"/>
</mask>
<g mask="url(#mask0_807_19145)">
<path d="M55.8498 79.6225C59.4905 79.6225 62.4418 76.6711 62.4418 73.0305C62.4418 69.3898 59.4905 66.4385 55.8498 66.4385C52.2091 66.4385 49.2578 69.3898 49.2578 73.0305C49.2578 76.6711 52.2091 79.6225 55.8498 79.6225Z" stroke="#74AF28" stroke-width="1.6" stroke-miterlimit="10"/>
<path d="M73.259 79.6225C76.8997 79.6225 79.851 76.6711 79.851 73.0305C79.851 69.3898 76.8997 66.4385 73.259 66.4385C69.6183 66.4385 66.667 69.3898 66.667 73.0305C66.667 76.6711 69.6183 79.6225 73.259 79.6225Z" stroke="#74AF28" stroke-width="1.6" stroke-miterlimit="10"/>
<path d="M90.6652 79.6225C94.3059 79.6225 97.2573 76.6711 97.2573 73.0305C97.2573 69.3898 94.3059 66.4385 90.6652 66.4385C87.0246 66.4385 84.0732 69.3898 84.0732 73.0305C84.0732 76.6711 87.0246 79.6225 90.6652 79.6225Z" stroke="#74AF28" stroke-width="1.6" stroke-miterlimit="10"/>
<path d="M65.1311 94.9506C68.7717 94.9506 71.7231 91.9993 71.7231 88.3586C71.7231 84.7179 68.7717 81.7666 65.1311 81.7666C61.4904 81.7666 58.5391 84.7179 58.5391 88.3586C58.5391 91.9993 61.4904 94.9506 65.1311 94.9506Z" stroke="#74AF28" stroke-width="1.6" stroke-miterlimit="10"/>
<path d="M82.5373 94.9506C86.178 94.9506 89.1293 91.9993 89.1293 88.3586C89.1293 84.7179 86.178 81.7666 82.5373 81.7666C78.8966 81.7666 75.9453 84.7179 75.9453 88.3586C75.9453 91.9993 78.8966 94.9506 82.5373 94.9506Z" stroke="#74AF28" stroke-width="1.6" stroke-miterlimit="10"/>
<path d="M64.6173 65.8626C67.1976 65.8626 69.2893 63.7708 69.2893 61.1906C69.2893 58.6103 67.1976 56.5186 64.6173 56.5186C62.037 56.5186 59.9453 58.6103 59.9453 61.1906C59.9453 63.7708 62.037 65.8626 64.6173 65.8626Z" stroke="#74AF28" stroke-width="1.6" stroke-miterlimit="10"/>
<path d="M82.5392 65.8313C85.1195 65.8313 87.2112 63.7396 87.2112 61.1593C87.2112 58.579 85.1195 56.4873 82.5392 56.4873C79.9589 56.4873 77.8672 58.579 77.8672 61.1593C77.8672 63.7396 79.9589 65.8313 82.5392 65.8313Z" stroke="#74AF28" stroke-width="1.6" stroke-miterlimit="10"/>
</g>
<path d="M104.263 46.4717C110.503 53.6717 114.247 63.0477 114.247 73.2877C114.247 95.9117 95.9112 114.28 73.2552 114.28C50.5992 114.28 32.2632 95.9437 32.2632 73.2877C32.2632 63.0157 36.0392 53.6397 42.2472 46.4717" stroke="#74AF28" stroke-width="1.6" stroke-linecap="round" stroke-linejoin="round"/>
<path d="M32.2964 28.9023V42.7263C32.2964 45.8623 50.6324 48.4223 73.2884 48.4223C95.9444 48.4223 114.28 45.8623 114.28 42.7263V28.9023" stroke="#74AF28" stroke-width="1.6" stroke-linecap="round" stroke-linejoin="round"/>
<path d="M52.6807 33.8301V39.3021C52.6807 40.3581 61.8967 41.2221 73.2887 41.2221C84.6807 41.2221 93.8967 40.3581 93.8967 39.3021V33.8301" stroke="#74AF28" stroke-width="1.6" stroke-linecap="round" stroke-linejoin="round"/>
<path d="M73.2884 34.599C95.9276 34.599 114.28 32.0488 114.28 28.903C114.28 25.7572 95.9276 23.207 73.2884 23.207C50.6491 23.207 32.2964 25.7572 32.2964 28.903C32.2964 32.0488 50.6491 34.599 73.2884 34.599Z" stroke="#74AF28" stroke-width="1.6" stroke-linecap="round" stroke-linejoin="round"/>
<path d="M85.9299 48.4873C85.9299 51.3353 80.4579 54.4393 73.4819 54.4393C66.5059 54.4393 60.6499 51.3353 60.6499 48.4873" stroke="#74AF28" stroke-width="1.6" stroke-linecap="round" stroke-linejoin="round"/>
</svg>
