<svg width="129" height="144" viewBox="0 0 129 144" fill="none" xmlns="http://www.w3.org/2000/svg">
<path d="M1.81055 141.925H28.0486C30.9518 141.925 33.3072 139.569 33.3072 136.666V58.9927C33.3072 56.0895 30.9518 53.7341 28.0486 53.7341H7.06913C4.16596 53.7341 1.81055 56.0895 1.81055 58.9927V133.051" stroke="#D1D1D1" stroke-width="2.69624" stroke-linecap="round" stroke-linejoin="round"/>
<path d="M42.2911 67.9764C42.2911 67.9764 41.579 59.3216 49.7408 52.2554C56.2044 46.6682 63.8184 43.0529 63.3802 3.61361C63.3802 -0.549427 92.2475 -0.385087 82.8259 44.9701H111.912C131.303 44.9701 128.838 63.2656 119.581 70.0579C128.455 74.5496 132.016 88.6272 116.678 94.5431C116.678 94.5431 125.99 107.963 109.667 117.275C109.667 117.275 116.678 138.255 97.4514 137.652H43.7153" stroke="#74AF28" stroke-width="2.69624" stroke-linecap="round" stroke-linejoin="round"/>
</svg>
