<svg width="16" height="16" viewBox="0 0 16 16" fill="none" xmlns="http://www.w3.org/2000/svg">
<g clip-path="url(#clip0_1703_18759)">
<path fill-rule="evenodd" clip-rule="evenodd" d="M4.8871 0.979943C4.98087 0.886174 5.10804 0.833496 5.24065 0.833496H10.7607C10.8933 0.833496 11.0204 0.886174 11.1142 0.979943L15.0209 4.88661C15.1146 4.98038 15.1673 5.10755 15.1673 5.24016V10.7602C15.1673 10.8928 15.1146 11.0199 15.0209 11.1137L11.1142 15.0204C11.0204 15.1142 10.8933 15.1668 10.7607 15.1668H5.24065C5.10804 15.1668 4.98087 15.1142 4.8871 15.0204L0.980431 11.1137C0.886663 11.0199 0.833984 10.8928 0.833984 10.7602V5.24016C0.833984 5.10755 0.886663 4.98038 0.980431 4.88661L4.8871 0.979943ZM5.44776 1.8335L1.83398 5.44727V10.5531L5.44776 14.1668H10.5535L14.1673 10.5531V5.44727L10.5535 1.8335H5.44776Z" fill="white"/>
<path fill-rule="evenodd" clip-rule="evenodd" d="M10.3536 5.64645C10.5488 5.84171 10.5488 6.15829 10.3536 6.35355L6.35355 10.3536C6.15829 10.5488 5.84171 10.5488 5.64645 10.3536C5.45118 10.1583 5.45118 9.84171 5.64645 9.64645L9.64645 5.64645C9.84171 5.45118 10.1583 5.45118 10.3536 5.64645Z" fill="white"/>
<path fill-rule="evenodd" clip-rule="evenodd" d="M5.64645 5.64645C5.84171 5.45118 6.15829 5.45118 6.35355 5.64645L10.3536 9.64645C10.5488 9.84171 10.5488 10.1583 10.3536 10.3536C10.1583 10.5488 9.84171 10.5488 9.64645 10.3536L5.64645 6.35355C5.45118 6.15829 5.45118 5.84171 5.64645 5.64645Z" fill="white"/>
</g>
<defs>
<clipPath id="clip0_1703_18759">
<rect width="16" height="16" fill="white"/>
</clipPath>
</defs>
</svg>
