<svg width="25" height="25" viewBox="0 0 25 25" fill="none" xmlns="http://www.w3.org/2000/svg">
<path fill-rule="evenodd" clip-rule="evenodd" d="M13.3319 1.81207C13.6373 1.94464 13.8187 2.26269 13.7774 2.59307L12.8828 9.75004H21.0332C21.3242 9.75004 21.589 9.91839 21.7124 10.1819C21.8358 10.4455 21.7957 10.7566 21.6094 10.9802L11.6094 22.9802C11.3962 23.236 11.04 23.3206 10.7346 23.188C10.4292 23.0554 10.2477 22.7374 10.289 22.407L11.1836 15.25H3.03321C2.7422 15.25 2.47746 15.0817 2.35402 14.8182C2.23059 14.5546 2.27074 14.2435 2.45705 14.0199L12.457 2.0199C12.6702 1.76413 13.0264 1.67949 13.3319 1.81207ZM4.63449 13.75H12.0332C12.2483 13.75 12.4531 13.8424 12.5955 14.0037C12.7378 14.165 12.8041 14.3796 12.7774 14.5931L12.0947 20.0547L19.4319 11.25H12.0332C11.8181 11.25 11.6133 11.1577 11.471 10.9964C11.3286 10.8351 11.2623 10.6205 11.289 10.407L11.9717 4.94538L4.63449 13.75Z" fill="#74AF28"/>
</svg>
